<svg width="18" height="18" viewBox="0 0 18 18" fill="none" xmlns="http://www.w3.org/2000/svg">
<path fill-rule="evenodd" clip-rule="evenodd" d="M0.666656 6.67705C0.666656 3.27129 3.42757 0.510376 6.83332 0.510376H11.1667C14.5724 0.510376 17.3333 3.27129 17.3333 6.67704V11.0104C17.3333 14.4161 14.5724 17.177 11.1667 17.177H6.83333C3.42757 17.177 0.666656 14.4161 0.666656 11.0104V6.67705ZM9 8.24372C8.4109 8.24372 7.93333 7.76616 7.93333 7.17705C7.93333 6.58795 8.4109 6.11039 9 6.11039C9.5891 6.11039 10.0667 6.58795 10.0667 7.17705C10.0667 7.50842 10.3353 7.77705 10.6667 7.77705C10.998 7.77705 11.2667 7.50842 11.2667 7.17705C11.2667 6.13292 10.5607 5.25368 9.6 4.99065V4.26039C9.6 3.92902 9.33137 3.66039 9 3.66039C8.66863 3.66039 8.4 3.92902 8.4 4.26039V4.99065C7.43933 5.25368 6.73333 6.13292 6.73333 7.17705C6.73333 8.4289 7.74816 9.44372 9 9.44372C9.5891 9.44372 10.0667 9.92128 10.0667 10.5104C10.0667 11.0995 9.5891 11.5771 9 11.5771C8.4109 11.5771 7.93333 11.0995 7.93333 10.5104C7.93333 10.179 7.66471 9.91039 7.33333 9.91039C7.00196 9.91039 6.73333 10.179 6.73333 10.5104C6.73333 11.5545 7.43933 12.4338 8.4 12.6968V13.4271C8.4 13.7584 8.66863 14.0271 9 14.0271C9.33137 14.0271 9.6 13.7584 9.6 13.4271V12.6968C10.5607 12.4338 11.2667 11.5545 11.2667 10.5104C11.2667 9.25854 10.2518 8.24372 9 8.24372Z" fill="#FF7DDB"/>
</svg>
