<svg width="11" height="10" viewBox="0 0 11 10" fill="none" xmlns="http://www.w3.org/2000/svg">
<path d="M1.375 1.98145V7.98145C1.375 8.18036 1.45402 8.37112 1.59467 8.51178C1.73532 8.65243 1.92609 8.73145 2.125 8.73145H9.625C9.72446 8.73145 9.81984 8.69194 9.89017 8.62161C9.96049 8.55128 10 8.4559 10 8.35645V3.10645C10 3.00699 9.96049 2.91161 9.89017 2.84128C9.81984 2.77095 9.72446 2.73145 9.625 2.73145H2.125C1.92609 2.73145 1.73532 2.65243 1.59467 2.51178C1.45402 2.37112 1.375 2.18036 1.375 1.98145ZM1.375 1.98145C1.375 1.78253 1.45402 1.59177 1.59467 1.45112C1.73532 1.31046 1.92609 1.23145 2.125 1.23145H8.5" stroke="#FBA0B9" stroke-width="0.84" stroke-linecap="round" stroke-linejoin="round"/>
</svg>
