<svg width="12" height="12" viewBox="0 0 12 12" fill="none" xmlns="http://www.w3.org/2000/svg">
<g clip-path="url(#clip0_0_803)">
<path d="M9.09375 3.3877L2.90625 9.5752" stroke="#FBA0B9" stroke-width="0.77" stroke-linecap="round" stroke-linejoin="round"/>
<path d="M3.76562 5.4502C4.43009 5.4502 4.96875 4.91154 4.96875 4.24707C4.96875 3.5826 4.43009 3.04395 3.76562 3.04395C3.10116 3.04395 2.5625 3.5826 2.5625 4.24707C2.5625 4.91154 3.10116 5.4502 3.76562 5.4502Z" stroke="#FBA0B9" stroke-width="0.77" stroke-linecap="round" stroke-linejoin="round"/>
<path d="M8.23438 9.91895C8.89884 9.91895 9.4375 9.38029 9.4375 8.71582C9.4375 8.05135 8.89884 7.5127 8.23438 7.5127C7.56991 7.5127 7.03125 8.05135 7.03125 8.71582C7.03125 9.38029 7.56991 9.91895 8.23438 9.91895Z" stroke="#FBA0B9" stroke-width="0.77" stroke-linecap="round" stroke-linejoin="round"/>
</g>
<defs>
<clipPath id="clip0_0_803">
<rect width="11" height="11" fill="white" transform="translate(0.5 0.981445)"/>
</clipPath>
</defs>
</svg>
