<svg width="41" height="42" viewBox="0 0 41 42" fill="none" xmlns="http://www.w3.org/2000/svg">
<path fill-rule="evenodd" clip-rule="evenodd" d="M20.5 38.5645C29.9349 38.5645 37.5834 30.9161 37.5834 21.4812C37.5834 12.0463 29.9349 4.39787 20.5 4.39787C11.0652 4.39787 3.41669 12.0463 3.41669 21.4812C3.41669 30.9161 11.0652 38.5645 20.5 38.5645ZM16.2199 29.2778C15.6909 29.7419 14.8856 29.6925 14.4174 29.1657C13.9473 28.6369 13.9949 27.827 14.5238 27.3569L14.9937 26.9958C15.271 26.8029 15.6689 26.554 16.1774 26.3075C17.1944 25.8144 18.6666 25.3249 20.5 25.3249C22.3335 25.3249 23.8057 25.8144 24.8227 26.3075C25.3312 26.554 25.7291 26.8029 26.0064 26.9958C26.1452 27.0924 26.2546 27.1755 26.3331 27.2379L26.4763 27.3569C27.0051 27.827 27.0528 28.6369 26.5827 29.1657C26.1144 29.6925 25.3092 29.7419 24.7802 29.2778L24.543 29.0994C24.3599 28.972 24.0771 28.7938 23.7047 28.6132C22.96 28.2522 21.8697 27.8874 20.5 27.8874C19.1304 27.8874 18.04 28.2522 17.2953 28.6132C16.923 28.7938 16.6402 28.972 16.4571 29.0994L16.2199 29.2778ZM29.0417 18.0645C29.0417 19.008 28.2768 19.7729 27.3334 19.7729C26.3899 19.7729 25.625 19.008 25.625 18.0645C25.625 17.1211 26.3899 16.3562 27.3334 16.3562C28.2768 16.3562 29.0417 17.1211 29.0417 18.0645ZM13.6667 19.7729C14.6102 19.7729 15.375 19.008 15.375 18.0645C15.375 17.1211 14.6102 16.3562 13.6667 16.3562C12.7232 16.3562 11.9584 17.1211 11.9584 18.0645C11.9584 19.008 12.7232 19.7729 13.6667 19.7729Z" fill="#E9BA74"/>
</svg>
