<svg width="39" height="40" viewBox="0 0 39 40" fill="none" xmlns="http://www.w3.org/2000/svg">
<path d="M9.75 5.8562H29.25C32.825 5.8562 35.75 8.7812 35.75 12.3562C35.75 15.1187 34.125 17.3937 31.6875 18.3687V12.3562C31.6875 11.7062 31.3625 11.0562 31.0375 10.5687C30.7125 10.0812 29.9 9.9187 29.25 9.9187H9.75C9.1 9.9187 8.45 10.2437 7.9625 10.5687C7.475 10.8937 7.3125 11.7062 7.3125 12.3562V18.3687C4.875 17.3937 3.25 15.1187 3.25 12.3562C3.25 8.7812 6.175 5.8562 9.75 5.8562Z" fill="#F4AEBB"/>
<path fill-rule="evenodd" clip-rule="evenodd" d="M29.2501 12.3562V31.8562C29.2501 33.6437 27.7876 35.1062 26.0001 35.1062H13.0001C11.2126 35.1062 9.75006 33.6437 9.75006 31.8562V12.3562H29.2501ZM17.0626 24.5437L18.2001 25.6812V18.8562C18.2001 18.2062 18.6876 17.5562 19.5001 17.5562C20.3126 17.5562 20.8001 18.0437 20.8001 18.8562V25.6812L21.9376 24.5437C22.4251 24.0562 23.2376 24.0562 23.7251 24.5437C24.2126 25.0312 24.2126 25.8437 23.7251 26.3312L21.6126 28.4437C20.4751 29.5812 18.6876 29.5812 17.5501 28.4437L15.4376 26.3312C14.9501 25.8437 14.9501 25.0312 15.4376 24.5437C15.9251 24.0562 16.5751 24.0562 17.0626 24.5437Z" fill="#F4AEBB"/>
</svg>
