<svg width="26" height="27" viewBox="0 0 26 27" fill="none" xmlns="http://www.w3.org/2000/svg">
<path d="M6.50005 4.2312H19.5001C21.8834 4.2312 23.8334 6.1812 23.8334 8.56453C23.8334 10.4062 22.7501 11.9229 21.1251 12.5729V8.56453C21.1251 8.1312 20.9084 7.69787 20.6917 7.37287C20.4751 7.04787 19.9334 6.93953 19.5001 6.93953H6.50005C6.06672 6.93953 5.63338 7.1562 5.30838 7.37287C4.98338 7.58953 4.87505 8.1312 4.87505 8.56453V12.5729C3.25005 11.9229 2.16672 10.4062 2.16672 8.56453C2.16672 6.1812 4.11672 4.2312 6.50005 4.2312Z" fill="#F4AEBB"/>
<path fill-rule="evenodd" clip-rule="evenodd" d="M19.5001 8.56519V21.5652C19.5001 22.7569 18.5251 23.7319 17.3334 23.7319H8.66676C7.47509 23.7319 6.50009 22.7569 6.50009 21.5652V8.56519H19.5001ZM11.3751 16.6902L12.1334 17.4485V12.8985C12.1334 12.4652 12.4584 12.0319 13.0001 12.0319C13.5418 12.0319 13.8668 12.3569 13.8668 12.8985V17.4485L14.6251 16.6902C14.9501 16.3652 15.4918 16.3652 15.8168 16.6902C16.1418 17.0152 16.1418 17.5569 15.8168 17.8819L14.4084 19.2902C13.6501 20.0485 12.4584 20.0485 11.7001 19.2902L10.2918 17.8819C9.96676 17.5569 9.96676 17.0152 10.2918 16.6902C10.6168 16.3652 11.0501 16.3652 11.3751 16.6902Z" fill="#F4AEBB"/>
</svg>
